<?xml version="1.0" standalone="no"?>
<!DOCTYPE svg PUBLIC "-//W3C//DTD SVG 20010904//EN"
 "http://www.w3.org/TR/2001/REC-SVG-20010904/DTD/svg10.dtd">
<svg version="1.0" xmlns="http://www.w3.org/2000/svg"
 width="400.000000pt" height="400.000000pt" viewBox="0 0 400.000000 400.000000"
 preserveAspectRatio="xMidYMid meet">
<metadata>
Created by potrace 1.11, written by Peter Selinger 2001-2013
</metadata>
<g transform="translate(0.000000,400.000000) scale(0.100000,-0.100000)"
fill="#000000" stroke="none">
<path d="M328 3942 c-58 -63 -117 -168 -138 -244 -8 -29 -11 -87 -8 -151 3
-94 7 -110 37 -171 19 -36 53 -84 76 -105 50 -46 138 -81 205 -81 l49 0 -30
-72 c-17 -40 -46 -106 -66 -146 -19 -40 -33 -76 -30 -78 6 -6 137 -54 149 -54
4 0 5 24 2 54 -5 41 8 180 22 239 1 4 2 16 3 27 2 29 17 25 30 -9 18 -41 79
-97 134 -121 l48 -21 19 23 19 23 -57 26 c-61 28 -119 84 -141 137 -11 26 -11
40 -1 77 7 25 15 45 19 45 3 0 19 -21 35 -46 52 -82 107 -123 193 -142 31 -7
49 -6 67 4 15 7 26 11 26 9 0 -2 -35 -33 -78 -69 -102 -86 -137 -150 -137
-251 0 -120 64 -220 192 -301 32 -20 59 -38 61 -39 2 -2 -22 -40 -53 -86 -111
-166 -210 -402 -250 -594 -24 -112 -31 -288 -15 -382 10 -66 33 -143 64 -214
13 -30 -86 -33 -296 -8 -205 24 -288 21 -404 -17 -71 -24 -76 -31 -72 -105 l3
-64 27 51 c20 38 34 53 55 57 15 4 39 10 53 14 l25 7 -27 -32 c-53 -63 -81
-138 -86 -227 -7 -128 36 -224 124 -280 l47 -30 -41 -18 c-39 -16 -44 -16 -72
-2 -17 9 -49 32 -70 51 l-39 36 1 -36 c1 -30 8 -40 42 -62 l41 -27 -40 -11
c-35 -10 -40 -15 -43 -45 -4 -36 -2 -36 65 -16 22 7 23 5 17 -37 -8 -59 16
-140 58 -197 34 -46 138 -121 170 -121 10 0 18 -4 18 -10 0 -24 -134 0 -209
37 -29 15 -68 45 -87 67 l-34 40 0 -52 c0 -52 0 -52 55 -88 68 -46 168 -74
260 -74 184 0 359 106 481 290 79 119 138 326 156 542 l11 138 31 -21 c131
-86 403 -169 658 -201 l97 -12 -33 -37 c-35 -38 -76 -132 -76 -174 0 -14 -3
-25 -6 -25 -10 0 -105 78 -164 134 -30 29 -60 55 -67 59 -10 6 -58 -50 -105
-125 l-17 -27 37 -11 c20 -5 43 -10 50 -10 23 0 202 -63 202 -71 0 -4 -8 -10
-17 -14 -29 -9 -89 -70 -117 -117 -49 -84 -70 -223 -45 -310 10 -37 12 -38 54
-38 l44 0 -16 46 c-23 68 -14 184 20 250 30 59 95 120 139 129 27 6 98 -19 98
-35 0 -3 -20 -13 -44 -23 -69 -29 -133 -100 -156 -175 -20 -65 -25 -132 -11
-166 10 -26 17 -12 26 54 17 124 104 228 219 261 24 7 36 4 64 -17 l34 -26
-54 -22 c-116 -47 -189 -134 -200 -237 -2 -24 1 -35 12 -37 10 -2 21 14 33 49
32 88 132 174 225 194 29 6 38 3 63 -21 l28 -27 -48 -17 c-67 -22 -94 -42
-141 -101 -46 -58 -50 -79 -17 -79 16 0 37 16 65 49 42 50 129 101 172 101 18
0 69 -44 70 -61 0 -3 -21 -13 -47 -22 -27 -10 -61 -29 -78 -43 l-30 -25 50 4
c28 2 71 13 97 23 48 19 48 19 63 -2 12 -17 26 -22 75 -23 57 -1 62 1 90 32
29 33 79 60 133 71 15 4 27 11 27 16 0 13 -101 13 -133 1 -38 -15 -97 -71 -97
-92 0 -28 -12 -23 -41 20 l-27 38 18 41 c22 49 44 62 107 62 58 0 122 28 151
65 12 16 26 25 30 21 4 -4 7 -68 7 -142 l0 -134 33 0 32 0 0 120 c0 65 -5 143
-11 172 -13 60 -48 148 -59 148 -4 0 -13 -20 -20 -44 -23 -84 -97 -146 -174
-146 -74 0 -156 90 -156 171 0 58 39 121 90 147 58 29 99 28 161 -4 28 -14 52
-24 54 -22 1 2 -4 25 -13 51 -10 33 -34 67 -74 109 -32 33 -57 62 -56 63 2 2
55 10 118 20 119 17 403 85 441 106 20 10 21 9 15 -17 -14 -58 -18 -202 -7
-254 27 -124 115 -251 208 -298 21 -11 67 -26 100 -33 60 -12 113 -5 193 25
13 5 15 -15 12 -154 l-3 -161 81 3 c44 1 80 5 80 9 0 3 -13 35 -29 70 -39 88
-80 259 -61 259 6 0 10 -4 10 -9 0 -16 87 -60 140 -72 139 -30 321 62 405 205
l26 44 -4 238 -3 239 -72 145 c-81 165 -102 233 -102 337 0 39 -4 74 -9 77
-13 9 -153 -20 -245 -50 -44 -14 -125 -47 -180 -74 -56 -26 -102 -47 -103 -46
-1 1 3 22 8 46 16 67 13 262 -5 365 -9 50 -29 132 -45 183 -16 50 -27 92 -24
92 2 0 29 -26 59 -57 63 -67 121 -156 130 -202 4 -17 12 -31 20 -31 23 0 87
42 170 112 207 173 388 436 402 580 2 32 3 58 0 58 -3 0 -22 -13 -42 -29 -74
-59 -157 -65 -221 -16 -63 48 -82 133 -45 204 24 48 60 78 113 92 54 14 113
-9 161 -62 l36 -39 0 138 c0 134 -1 139 -28 183 -38 59 -115 126 -182 158 -48
22 -68 26 -155 26 -119 0 -170 -19 -238 -88 l-43 -45 -18 57 c-9 31 -28 98
-42 150 -13 52 -25 96 -27 97 -2 3 -170 -66 -176 -72 -3 -3 18 -28 46 -57 48
-50 143 -168 143 -178 0 -3 -15 -3 -34 -1 -18 2 -43 -1 -53 -7 -17 -8 -25 -5
-49 20 -70 74 -212 165 -286 183 l-28 6 36 38 c19 20 51 69 70 108 79 159 65
341 -34 447 -30 32 -111 77 -139 77 -12 0 -6 12 25 43 l43 44 -49 2 c-42 1
-50 -2 -62 -24 -17 -32 -30 -32 -30 0 0 20 -4 24 -26 23 -24 -2 -25 -4 -19
-50 7 -46 5 -51 -29 -88 -38 -43 -41 -42 -45 10 -2 19 -11 55 -20 80 -14 39
-21 45 -49 48 l-33 3 25 -48 c13 -26 30 -74 36 -107 l12 -58 -33 -34 c-18 -18
-35 -32 -38 -29 -2 3 -6 22 -8 43 -5 58 -53 140 -106 186 -48 40 -51 41 -130
43 -81 3 -81 3 -41 -10 115 -38 190 -108 219 -203 23 -78 20 -98 -22 -133
l-38 -31 -8 52 c-15 101 -73 180 -161 220 -43 19 -68 23 -154 23 -56 0 -102 2
-102 3 0 2 8 16 18 30 36 52 36 52 -7 52 -39 0 -41 -1 -70 -62 -16 -35 -50
-126 -76 -203 -53 -161 -92 -236 -166 -318 -29 -33 -48 -62 -43 -65 228 -166
537 -272 795 -272 54 0 99 -3 99 -6 0 -3 -4 -13 -9 -23 -5 -9 -15 -55 -21
-101 -6 -47 -13 -86 -14 -88 -2 -1 -47 8 -102 20 -84 18 -132 22 -314 22 -207
1 -273 -5 -417 -41 -21 -5 -23 -1 -23 29 0 63 -21 152 -48 201 -35 66 -110
131 -167 147 -31 9 -42 16 -36 24 5 6 20 40 32 76 23 62 24 77 24 362 l0 298
-22 0 c-12 0 -23 -6 -25 -12 -4 -10 -10 -10 -32 0 -31 14 -76 16 -76 4 0 -21
40 -44 70 -40 l31 5 -3 -51 c-3 -51 -3 -51 -36 -49 -56 2 -91 23 -119 70 -24
42 -25 45 -7 57 15 12 5 14 -77 15 -84 1 -92 -1 -75 -14 10 -8 24 -16 30 -18
15 -6 -35 -46 -57 -47 -27 0 -95 38 -107 60 -11 21 -60 29 -60 10 0 -42 70
-110 113 -110 9 0 17 -2 17 -5 0 -13 -54 -55 -71 -55 -60 0 -148 67 -175 134
-14 34 -23 44 -42 44 -22 0 -23 -3 -17 -37 15 -79 91 -161 165 -177 52 -11 52
-12 19 -53 -28 -35 -35 -39 -63 -34 -127 24 -220 123 -233 250 -8 79 -28 50
-28 -40 1 -79 20 -130 69 -179 33 -32 102 -65 154 -74 l39 -6 -24 -44 c-27
-48 -34 -50 -110 -30 -124 33 -191 108 -237 265 l-16 53 28 27 c15 14 43 38
62 53 l35 27 -56 1 c-57 0 -57 0 -111 -58z m800 -47 c33 -68 90 -88 168 -58
12 5 15 -3 12 -38 l-3 -44 -72 1 c-88 0 -139 29 -168 93 l-18 42 24 24 c13 13
26 24 30 24 3 1 15 -19 27 -44z m943 -21 c132 -39 206 -117 223 -235 7 -45 6
-47 -29 -68 -41 -24 -55 -21 -55 13 0 41 -30 97 -78 145 -57 57 -114 76 -202
68 -33 -3 -60 -4 -60 -2 0 2 9 24 20 49 l19 46 54 0 c29 0 78 -7 108 -16z
m-1708 -38 c-10 -83 41 -207 111 -269 36 -32 124 -61 171 -55 l33 4 -23 -51
-22 -50 -64 1 c-119 1 -204 66 -274 207 -34 69 -36 78 -25 111 12 37 80 146
91 146 4 0 4 -20 2 -44z m2445 -3 c48 -27 96 -95 113 -158 15 -54 5 -148 -23
-221 l-22 -59 -8 85 c-4 46 -15 105 -24 130 -24 62 -94 133 -152 155 -26 10
-49 19 -51 21 -1 1 14 21 35 44 43 47 57 47 132 3z m-1786 -26 c37 -77 157
-118 242 -83 22 9 40 15 41 14 2 -2 6 -22 10 -45 l7 -42 -44 -12 c-25 -6 -75
-9 -120 -6 -66 4 -84 10 -119 35 -45 34 -89 88 -89 111 0 15 38 61 50 61 3 0
13 -15 22 -33z m931 -43 c115 -29 192 -106 203 -200 6 -49 6 -49 -30 -67 -20
-9 -38 -17 -39 -17 -1 0 -3 16 -5 35 -6 95 -82 166 -183 173 -51 4 -59 7 -54
21 4 9 9 28 12 44 6 31 14 32 96 11z m705 -48 c111 -57 172 -176 172 -336 0
-42 -5 -51 -42 -88 -32 -32 -50 -42 -74 -42 l-32 0 15 43 c21 60 13 189 -15
243 -24 47 -69 89 -122 112 -19 9 -37 18 -39 19 -8 6 63 73 76 73 8 0 35 -11
61 -24z m-1723 -29 c17 -23 52 -55 79 -72 45 -27 58 -30 130 -30 64 0 90 5
123 23 23 12 45 22 48 22 3 0 5 -22 5 -50 0 -58 -3 -61 -113 -85 -157 -35
-279 14 -343 136 -15 29 -14 32 8 65 13 19 25 34 28 33 3 0 19 -19 35 -42z
m962 -28 c85 -36 133 -96 133 -167 0 -34 -4 -41 -24 -46 -13 -3 -31 -9 -40
-12 -13 -5 -16 2 -16 37 0 80 -31 111 -132 131 -15 3 -15 6 -1 41 8 20 19 37
23 37 5 0 30 -9 57 -21z m604 -45 c46 -23 108 -83 128 -123 28 -54 43 -139 35
-197 -6 -50 -8 -53 -48 -68 -24 -9 -55 -30 -71 -46 -46 -48 -56 -36 -23 26 26
48 31 68 31 125 0 59 -4 76 -29 116 -16 26 -53 66 -81 90 l-53 42 30 18 c17 9
30 21 30 25 0 12 18 10 51 -8z m-2152 -171 c58 -58 122 -87 193 -87 32 -1 58
-4 58 -7 0 -3 -7 -26 -16 -52 -18 -53 -35 -62 -102 -52 -144 21 -242 152 -242
320 l1 60 33 -70 c19 -38 52 -89 75 -112z m495 128 c45 -87 137 -141 242 -141
54 0 163 34 198 61 15 12 29 20 31 18 2 -2 1 -26 -2 -52 -5 -40 -10 -50 -35
-63 -114 -59 -273 -72 -356 -30 -52 26 -111 85 -138 138 -16 31 -16 34 6 75
13 24 24 43 26 43 2 0 15 -22 28 -49z m1036 -37 c23 -27 30 -44 30 -78 0 -42
-1 -44 -40 -54 l-40 -10 0 33 c0 36 -26 65 -59 68 -12 1 -20 4 -19 7 2 3 12
24 22 46 18 40 20 41 47 32 16 -5 42 -25 59 -44z m488 -8 c63 -33 126 -126
138 -201 7 -47 -19 -164 -39 -177 -7 -4 -36 -8 -66 -8 -47 0 -52 2 -46 18 25
58 34 92 35 128 0 56 -44 140 -91 173 -21 14 -38 28 -39 32 0 4 69 48 78 49 2
0 15 -6 30 -14z m-1609 -85 c43 -84 161 -151 264 -151 72 0 156 23 215 60 27
16 52 30 55 30 3 0 -2 -21 -11 -46 -14 -38 -25 -50 -62 -69 -25 -13 -66 -28
-90 -35 -25 -6 -65 -23 -90 -36 -25 -14 -36 -18 -26 -10 19 15 16 16 -38 16
-79 0 -128 16 -178 59 -43 37 -98 115 -98 139 0 15 30 82 36 82 2 0 13 -18 23
-39z m1015 4 c29 -45 21 -63 -30 -71 -57 -8 -40 -24 28 -24 42 0 49 -3 63 -30
17 -34 20 -60 5 -60 -13 0 -135 56 -176 81 l-30 18 50 55 c28 31 56 56 62 56
7 0 19 -11 28 -25z m521 -64 c26 -38 30 -52 33 -124 5 -110 -2 -118 -87 -106
-36 5 -67 11 -69 14 -3 3 3 14 13 25 20 22 32 111 21 154 -3 13 -20 39 -37 56
-17 17 -30 32 -28 34 2 2 18 10 34 19 28 15 32 14 60 -7 17 -13 44 -42 60 -65z
m-200 29 c-4 -6 4 -19 18 -30 36 -29 50 -72 45 -140 -2 -33 -7 -62 -10 -66 -8
-8 -118 17 -118 27 0 4 7 20 16 36 21 36 13 90 -17 122 -24 26 -18 35 31 49
19 6 36 11 38 11 2 1 0 -4 -3 -9z m-117 -63 c25 -27 37 -75 28 -113 -6 -24
-10 -25 -42 -19 -69 13 -81 23 -81 69 1 22 -2 48 -7 58 -15 33 72 38 102 5z
m835 -94 c-7 -2 -19 -2 -25 0 -7 3 -2 5 12 5 14 0 19 -2 13 -5z m942 -177 c95
-44 167 -128 197 -232 l15 -52 -46 21 c-87 39 -189 19 -252 -50 -15 -15 -30
-38 -33 -50 -4 -12 -31 -38 -59 -57 l-52 -35 -14 42 -14 41 56 51 c31 28 82
65 114 81 49 24 70 29 133 29 41 0 85 -4 98 -8 41 -15 23 11 -24 34 -103 50
-243 18 -342 -79 -30 -29 -56 -51 -57 -50 -1 2 -7 17 -13 35 -10 30 -8 36 30
81 58 72 142 113 243 118 43 2 79 5 82 7 12 12 -71 32 -132 31 -86 -1 -151
-31 -213 -98 l-42 -45 -15 29 c-24 47 -18 65 36 114 88 79 193 93 304 42z
m-503 -106 c58 0 74 -10 96 -56 l22 -45 -37 8 c-21 4 -52 7 -69 7 -29 0 -33 4
-44 40 -6 23 -18 52 -26 66 l-15 25 20 -22 c12 -15 31 -23 53 -23z m112 -154
c23 -9 37 -24 45 -46 16 -48 16 -48 -41 -33 -31 8 -74 12 -102 9 l-48 -5 6 31
c3 17 6 37 6 44 0 19 89 19 134 0z m33 -138 c37 -9 44 -15 53 -46 5 -20 8 -37
7 -39 -2 -1 -19 2 -38 7 -123 36 -283 -31 -340 -141 -10 -21 -19 -45 -19 -54
0 -25 -14 -17 -38 23 -12 20 -30 48 -39 60 -14 20 -14 23 -2 20 18 -4 70 36
153 117 51 50 68 61 106 66 50 7 94 3 157 -13z m216 -110 c3 -18 8 -42 11 -53
5 -16 -3 -24 -38 -41 l-43 -22 -1 29 c0 16 -3 38 -7 48 -4 13 3 27 22 45 37
34 50 33 56 -6z m-182 -29 c44 -15 45 -16 53 -68 6 -39 5 -43 -11 -36 -37 16
-106 22 -151 13 -83 -15 -159 -84 -178 -162 -6 -25 0 -21 52 32 69 70 114 87
212 79 76 -6 92 -18 92 -69 0 -39 -1 -40 -27 -32 -88 27 -166 -3 -204 -78 -27
-52 -24 -57 14 -21 65 62 119 76 182 46 32 -15 35 -20 35 -59 l0 -42 -47 1
c-40 0 -50 -4 -75 -32 -37 -41 -36 -58 3 -30 23 16 39 20 66 16 19 -4 38 -9
41 -12 3 -2 -2 -43 -10 -90 -8 -47 -11 -85 -6 -85 12 0 34 53 48 116 19 79 81
116 142 83 44 -23 32 19 -13 45 -29 17 -53 17 -89 2 -13 -5 -15 1 -12 34 3 30
11 45 33 61 41 29 125 36 185 15 56 -19 54 -19 54 -6 0 5 -19 23 -42 40 -36
26 -49 30 -108 30 -43 0 -73 -5 -86 -15 -29 -22 -34 -18 -34 29 0 38 4 47 34
70 44 33 80 33 130 -1 35 -25 48 -28 118 -28 43 0 78 -1 78 -3 0 -1 -10 -22
-21 -45 -52 -101 -163 -242 -276 -350 -57 -55 -147 -127 -157 -127 -3 0 -14
19 -24 43 -31 68 -105 158 -210 255 -74 69 -105 106 -130 156 l-34 65 28 36
c35 46 91 90 145 115 50 22 146 27 200 9z m-1815 -401 c12 -38 5 -211 -11
-271 -19 -73 -37 -108 -81 -157 -67 -74 -195 -91 -280 -38 -66 42 -106 112
-129 226 -6 30 -4 33 27 46 75 31 75 31 82 -16 19 -127 135 -199 214 -133 45
38 64 96 70 213 l5 102 41 25 c50 30 53 30 62 3z m849 -9 c30 -18 32 -22 28
-62 -3 -24 0 -74 5 -111 25 -156 95 -217 197 -169 41 20 85 97 85 150 0 39 -2
38 61 16 45 -16 49 -20 49 -50 0 -88 -77 -209 -155 -244 -90 -41 -216 -9 -274
71 -58 81 -90 234 -76 365 7 73 11 75 80 34z m1305 -704 c0 -82 -1 -85 -23
-85 -24 0 -67 25 -67 39 0 5 11 25 25 45 32 47 21 46 -34 -4 -25 -22 -50 -40
-57 -40 -15 0 -71 46 -64 53 4 4 210 76 218 77 1 0 2 -38 2 -85z m-227 -52
c11 -13 29 -23 39 -23 24 0 23 -5 -8 -46 -37 -49 -79 -47 -134 4 -22 22 -40
43 -40 48 0 14 114 62 119 50 2 -6 13 -21 24 -33z m-151 -86 c13 -33 54 -57
98 -57 36 0 36 -3 9 -46 -15 -25 -28 -34 -48 -34 -66 0 -136 43 -168 103 -17
33 -18 32 44 68 41 23 48 25 51 10 2 -9 8 -29 14 -44z m278 33 c21 -21 84 -28
95 -10 12 19 21 10 33 -37 15 -53 11 -57 -50 -67 -44 -7 -100 14 -123 46 -12
18 -11 25 3 54 9 18 18 34 20 34 1 0 11 -9 22 -20z m-414 -66 c-3 -8 6 -38 20
-65 28 -57 81 -88 148 -89 32 0 37 -3 31 -17 -4 -10 -9 -25 -12 -35 -6 -20
-33 -28 -93 -28 -48 0 -128 38 -165 79 -17 20 -18 25 -5 44 8 12 27 46 43 75
27 49 46 70 33 36z m348 -39 c8 -23 68 -55 101 -55 17 0 48 11 71 24 l41 23
16 -34 c14 -33 14 -34 -9 -50 -88 -57 -172 -54 -247 9 l-29 24 19 37 c20 40
28 45 37 22z m-3347 -82 c-38 -55 -67 -147 -67 -212 0 -92 51 -179 135 -231
l36 -23 -41 -23 -42 -24 -53 35 c-100 67 -146 174 -125 292 12 69 44 164 67
200 11 16 26 23 61 25 26 2 49 2 51 1 2 -2 -8 -20 -22 -40z m153 27 c0 -4 -7
-13 -15 -20 -8 -6 -24 -37 -36 -68 -39 -105 -6 -225 78 -287 23 -16 40 -34 39
-40 -1 -5 -17 -18 -34 -28 -32 -19 -32 -19 -76 7 -106 62 -144 181 -106 331
28 109 38 121 100 117 27 -2 50 -7 50 -12z m429 -62 c-20 -38 -51 -32 -75 14
-17 32 -12 43 21 50 27 6 67 -40 54 -64z m-329 54 c0 -5 -7 -23 -16 -41 -12
-23 -15 -52 -12 -101 4 -78 21 -110 81 -149 l36 -23 -30 -25 c-35 -30 -55 -25
-108 27 -68 68 -86 164 -51 283 11 36 13 37 55 37 25 0 45 -4 45 -8z m93 -29
c-5 -16 -8 -47 -8 -70 1 -49 31 -88 76 -98 36 -8 36 -14 -1 -50 l-29 -28 -41
27 c-54 35 -79 91 -80 172 0 33 3 64 7 67 3 4 24 7 45 7 37 0 38 -1 31 -27z
m120 7 c-9 -36 6 -71 38 -84 l30 -12 -29 -34 -30 -33 -36 22 c-40 25 -55 48
-67 99 -11 52 -3 62 51 62 43 0 48 -2 43 -20z m3152 -50 c21 -47 22 -47 -78
-101 -94 -50 -196 -41 -280 25 -16 12 -17 19 -7 55 6 23 13 41 16 41 3 0 14
-9 26 -20 32 -30 82 -50 125 -50 44 0 138 43 156 71 17 27 22 24 42 -21z
m-2965 -77 c0 -47 -5 -51 -35 -25 -43 36 -48 48 -30 82 l17 32 24 -23 c18 -17
24 -33 24 -66z m2253 42 c44 -56 97 -77 178 -73 76 3 79 0 58 -61 -13 -37 -39
-46 -121 -45 -76 2 -152 39 -196 95 l-32 43 37 38 c20 21 40 38 43 38 3 0 18
-16 33 -35z m762 -76 l19 -42 -39 -34 c-46 -39 -163 -100 -212 -109 -56 -11
-119 5 -177 44 -48 31 -56 41 -56 67 0 17 6 39 13 49 12 16 14 16 39 -4 103
-81 268 -62 350 41 17 21 34 37 38 34 3 -2 15 -23 25 -46z m-849 -76 c14 -18
44 -43 67 -54 49 -25 152 -36 196 -21 17 6 33 8 35 4 2 -4 0 -29 -5 -54 -10
-47 -10 -47 -65 -58 -103 -22 -195 4 -275 77 -43 39 -99 114 -99 132 0 6 21
24 47 40 l47 30 14 -32 c7 -17 24 -46 38 -64z m-2242 62 c14 -14 35 -25 47
-25 21 0 21 -3 16 -61 -3 -33 -7 -63 -10 -65 -10 -10 -56 9 -86 34 -41 36 -49
79 -21 115 12 15 23 27 25 27 2 0 15 -11 29 -25z m3135 -130 c1 -12 -18 -40
-44 -65 -24 -24 -41 -48 -38 -53 3 -6 1 -7 -4 -4 -6 4 -37 -9 -68 -28 -111
-66 -222 -68 -318 -4 -65 43 -70 52 -62 104 l6 46 29 -24 c131 -111 316 -87
430 56 l45 56 12 -32 c6 -18 12 -41 12 -52z m-1024 13 c27 -77 123 -171 195
-192 29 -9 61 -16 70 -16 17 0 105 23 130 34 13 5 14 -2 10 -51 l-5 -57 -50
-19 c-64 -24 -164 -19 -228 12 -25 12 -75 49 -111 82 -58 53 -66 65 -66 96 0
46 21 163 30 163 3 0 14 -24 25 -52z m-2215 13 c0 -23 46 -70 77 -77 12 -4 34
-3 48 0 30 8 32 -7 13 -79 -12 -44 -14 -45 -43 -39 -54 11 -109 48 -132 89
-28 50 -29 73 -1 102 26 28 38 29 38 4z m-72 -160 c31 -43 78 -64 138 -64 l55
0 -7 -31 c-3 -16 -12 -46 -19 -66 -11 -32 -16 -35 -49 -33 -83 5 -173 81 -201
170 l-17 55 33 28 34 28 6 -30 c4 -17 16 -42 27 -57z m3322 35 l0 -54 -74 -69
c-166 -154 -315 -175 -457 -62 -39 30 -45 49 -33 95 6 21 7 21 55 -12 98 -65
218 -68 334 -6 55 30 140 109 150 141 12 39 25 21 25 -33z m-2010 2 c-109 -41
-177 -139 -184 -269 -1 -25 -10 -24 -46 3 -24 18 -30 29 -30 60 0 72 50 158
118 203 31 20 49 24 117 24 l80 0 -55 -21z m223 -12 c61 -41 87 -61 87 -68 0
-3 -22 -8 -49 -10 -108 -11 -182 -100 -183 -222 0 -36 -4 -68 -8 -71 -4 -2
-13 -25 -20 -49 l-12 -45 -35 32 c-31 29 -33 35 -27 72 11 68 44 143 86 196
44 56 119 109 155 109 13 0 23 5 23 10 0 15 -76 12 -117 -5 -95 -40 -175 -150
-191 -265 l-7 -54 -35 31 -34 30 11 62 c16 84 64 163 127 211 28 22 58 46 66
54 9 8 35 15 63 15 39 1 58 -6 100 -33z m-1603 -191 c38 -39 104 -65 167 -65
l44 0 -28 -52 -28 -53 -57 2 c-96 3 -179 61 -223 155 -14 29 -25 70 -25 90 0
32 5 41 37 63 l37 25 21 -65 c14 -41 34 -78 55 -100z m-162 -71 c42 -81 118
-123 225 -124 37 0 67 -4 67 -8 0 -4 -24 -31 -53 -60 l-53 -53 -64 20 c-120
38 -205 116 -236 217 -25 84 -20 108 28 137 l43 25 11 -58 c7 -31 21 -75 32
-96z m2624 37 c53 -25 141 -43 177 -35 14 3 43 12 64 20 20 8 42 14 47 14 6 0
10 -25 10 -55 0 -51 -2 -56 -32 -71 -41 -21 -133 -29 -184 -15 -76 20 -168
113 -212 214 -21 48 -14 47 38 -3 27 -26 69 -57 92 -69z m918 113 c0 -3 -13
-34 -29 -68 -57 -119 -183 -213 -301 -223 -48 -5 -67 -1 -116 21 -89 41 -114
69 -114 128 0 26 2 48 5 48 3 0 25 -16 50 -35 61 -46 106 -58 201 -53 71 3 85
7 135 40 59 38 149 121 149 138 0 6 5 10 10 10 6 0 10 -3 10 -6z m-3724 -127
c2 -147 104 -246 279 -272 l80 -11 -66 -37 c-36 -20 -80 -40 -97 -43 -46 -9
-134 37 -209 112 -67 66 -93 126 -93 215 0 48 0 48 53 73 28 13 52 25 52 25 0
1 0 -27 1 -62z m1855 -211 c11 -14 28 -28 39 -31 11 -4 20 -10 20 -15 0 -11
-43 -79 -50 -79 -3 0 -18 16 -34 35 -27 33 -28 37 -17 75 6 21 14 39 17 39 4
0 15 -11 25 -24z"/>
<path d="M3293 3923 c4 -43 19 -125 35 -183 29 -107 87 -256 102 -265 5 -3 31
10 58 30 91 65 168 89 375 120 135 20 137 21 137 56 0 32 0 32 -52 20 -21 -5
-38 -7 -38 -6 0 2 7 31 16 65 17 66 13 123 -13 175 -27 54 -43 65 -90 65 l-45
0 32 -26 c48 -41 79 -112 87 -199 6 -81 8 -78 -56 -89 l-33 -6 6 44 c14 89
-30 177 -104 213 -25 12 -47 21 -50 21 -17 -1 -20 4 -11 20 9 17 5 18 -44 19
-50 0 -53 -1 -44 -19 7 -13 5 -26 -8 -48 -20 -34 -29 -37 -37 -12 -13 39 -123
72 -141 42 -11 -17 -23 -11 -29 15 -5 19 -13 25 -33 25 l-26 0 6 -77z m157
-13 c8 -5 25 -19 38 -33 21 -23 22 -27 10 -66 -14 -45 -21 -49 -45 -25 -10 10
-28 14 -49 12 -32 -4 -32 -3 -43 51 -6 30 -11 58 -11 62 0 18 64 17 100 -1z
m217 -15 c21 -9 46 -23 56 -33 30 -27 58 -89 64 -143 5 -43 4 -49 -13 -49 -10
0 -29 -3 -41 -6 -21 -6 -23 -3 -23 36 0 82 -43 130 -116 130 -28 0 -30 12 -7
51 20 33 30 35 80 14z m-58 -114 c38 -20 63 -50 81 -96 11 -28 -1 -38 -61 -49
-34 -6 -36 -5 -32 17 6 29 -19 56 -58 64 -34 7 -33 3 -12 48 19 40 29 42 82
16z m-172 -41 c35 -21 34 -14 18 -112 -6 -38 6 -29 21 15 13 40 39 46 70 16
33 -30 30 -41 -13 -64 -20 -11 -49 -30 -64 -43 l-27 -22 -16 47 c-18 56 -46
160 -46 173 0 16 22 12 57 -10z"/>
<path d="M0 2670 c0 -32 3 -33 84 -44 91 -12 210 -102 252 -191 26 -55 30
-103 13 -170 -10 -38 -18 -48 -57 -70 -25 -14 -47 -24 -48 -22 -2 2 1 19 6 38
14 49 12 118 -5 175 -25 84 -96 152 -207 199 -38 15 -38 15 -38 -10 0 -19 10
-29 40 -45 60 -31 118 -87 146 -142 19 -38 24 -62 23 -120 -1 -103 -8 -118
-55 -138 l-40 -18 4 83 c4 72 1 90 -20 136 -26 56 -73 119 -89 119 -18 0 -9
-51 16 -90 62 -99 55 -280 -11 -280 -9 0 -14 -11 -14 -35 0 -19 2 -35 4 -35 1
0 17 5 35 11 29 10 35 9 58 -12 97 -91 113 -234 43 -382 l-31 -67 -55 0 c-53
0 -54 0 -54 -30 l0 -30 78 0 c146 0 251 41 354 138 50 48 78 84 106 140 34 71
37 82 37 166 0 80 -3 97 -27 142 -15 29 -45 67 -67 86 l-40 34 117 56 c64 32
129 60 145 64 15 3 27 11 27 16 0 6 -17 42 -37 80 l-38 69 -18 -23 c-39 -49
-105 -115 -152 -153 -90 -73 -82 -74 -77 14 4 69 1 85 -23 139 -31 69 -105
146 -174 182 -40 20 -154 49 -193 50 -13 0 -18 -8 -18 -30z m436 -532 c47 -42
84 -119 84 -179 0 -84 -32 -160 -109 -259 -29 -36 -34 -20 -11 31 23 51 28
184 8 240 -17 50 -53 101 -88 124 -30 20 -49 48 -27 39 7 -2 28 4 47 15 49 26
54 25 96 -11z m-164 -78 c20 -17 49 -56 65 -87 23 -47 27 -71 28 -133 0 -88
-26 -182 -60 -215 -20 -21 -68 -40 -160 -61 l-30 -7 42 47 c57 64 82 121 89
197 8 88 -7 137 -62 198 -26 29 -45 53 -43 54 15 9 76 36 84 36 6 1 27 -13 47
-29z"/>
<path d="M6 1888 c8 -103 8 -126 -1 -208 l-7 -65 21 25 c60 73 68 207 17 288
-14 23 -29 42 -31 42 -3 0 -3 -37 1 -82z"/>
</g>
</svg>
